# xmcd
#
# Track frame offsets:
#	175
#	13868
#	27353
#	39888
#	52785
#	64838
#	76415
#	93573
#	112235
#	127030
#	138775
#	153705
#	167315
#	180840
#	192330
#	203063
#
# Disc length: 2872 seconds
#
# Revision: 1
# Processed by: cddbd v1.5.1PL0 Copyright (c) Steve Scherf et al.
# Submitted via: audiograbber 1.82.02
#
DISCID=cd0b3610
DTITLE=Various Artist - Solid Soul 5
DYEAR=1900
DGENRE=
TTITLE0=King Floyd - Groove me
TTITLE1=Shep and the limelights - Daddy's home
TTITLE2=Jerry Butler - Find another girl
TTITLE3=Eddie Floyd - I've never found a girl
TTITLE4=Irma Thomas - Good to me
TTITLE5=The toys - A lovers concerto
TTITLE6=Timmy Thomas - Why can't we live together
TTITLE7=Charles Brimmer - Thats how strong my love is
TTITLE8=Sue Thompson - Sad Movies
TTITLE9=Jack Scott - My true love
TTITLE10=ZZ Hill - A man needs a woman
TTITLE11=The Casinos - Then you can tell me goodbye
TTITLE12=Ray Peterson - Tell Laura Iove her
TTITLE13=Brooke Benton - My true confession
TTITLE14=Shep and the Limelites - Stick by me
TTITLE15=Jerry Butler with the Impressions - For your prescious love
EXTD=
EXTT0=
EXTT1=
EXTT2=
EXTT3=
EXTT4=
EXTT5=
EXTT6=
EXTT7=
EXTT8=
EXTT9=
EXTT10=
EXTT11=
EXTT12=
EXTT13=
EXTT14=
EXTT15=
PLAYORDER=
